<?xml version="1.0" encoding="UTF-8"?><svg id="uuid-5f2faf36-b242-4092-9f66-8b94c621e7c1" xmlns="http://www.w3.org/2000/svg" viewBox="0 0 150 40" width="150" height="40"><path d="m31.9,9.92c1.23.7,1.99,2.01,1.98,3.43v12.81c0,1.42-.78,2.74-2.04,3.43l-11.88,7.51c-1.2.66-2.65.66-3.84,0l-11.88-7.51c-1.25-.69-2.03-2-2.04-3.43v-12.82c0-1.42.78-2.73,2.04-3.43l11.88-7c1.23-.68,2.73-.68,3.96,0l11.88,7s-.06,0-.06,0Z" fill="none" stroke="#000" stroke-linecap="round" stroke-linejoin="round" stroke-width="3.52"/><path d="m12.77,20c0,2.91,2.36,5.28,5.28,5.28s5.28-2.36,5.28-5.28-2.36-5.28-5.28-5.28-5.28,2.36-5.28,5.28" fill="none" stroke="#000" stroke-linecap="round" stroke-linejoin="round" stroke-width="3.52"/><path d="m56.99,32.23c-5.77,0-11.61-4.7-11.61-12.23,0-6.84,4.93-12.23,11.74-12.23,4.28,0,6.84,1.46,8.76,3.7l-2.4,2.14c-1.62-1.69-3.7-2.66-6.29-2.66-4.6,0-8.43,3.57-8.43,8.98,0,6.1,4.67,9.11,8.3,9.11,2.27,0,4.93-.91,6.94-3.27l2.33,2.01c-1.82,2.53-5.19,4.44-9.34,4.44Z" stroke-width="0"/><path d="m75.6,32.23c-3.99,0-6.87-2.82-6.87-7.23,0-3.63,2.59-7.04,6.81-7.04s7,3.24,7,6.91c0,4.09-2.82,7.36-6.94,7.36Zm-.07-11.41c-2.3,0-3.66,1.88-3.66,4.18,0,2.69,1.36,4.38,3.63,4.38,2.76,0,3.89-1.88,3.89-4.31,0-2.63-1.49-4.25-3.86-4.25Z" stroke-width="0"/><path d="m94.41,31.84v-8.2c0-1.65-.81-2.82-2.56-2.82-2.3,0-3.15,2.11-3.15,3.76v7.26h-3.08v-13.49h3.08v1.62c.84-1.3,2.27-2.01,3.83-2.01,2.89,0,4.96,1.75,4.96,5.09v8.79h-3.08Z" stroke-width="0"/><path d="m105.08,32.16c-1.88,0-3.5-.62-4.86-1.72l1.52-2.3c1.13.91,2.43,1.26,3.18,1.26.88,0,1.75-.36,1.75-1.17,0-.94-.84-1.43-2.01-2.01-1.75-.84-4.09-1.75-4.09-4.47,0-2.11,2.01-3.79,4.47-3.79,1.3,0,2.92.23,4.34,1.2l-1.26,2.43c-.97-.68-2.17-.94-2.95-.94-.71,0-1.52.2-1.52,1.04,0,.71.97,1.17,2.17,1.75,1.75.87,3.92,2.01,3.92,4.64,0,2.27-1.95,4.09-4.67,4.09Z" stroke-width="0"/><path d="m118.92,32.23c-3.99,0-6.87-2.82-6.87-7.23,0-3.63,2.59-7.04,6.81-7.04s7,3.24,7,6.91c0,4.09-2.82,7.36-6.94,7.36Zm-.07-11.41c-2.3,0-3.66,1.88-3.66,4.18,0,2.69,1.36,4.38,3.63,4.38,2.76,0,3.89-1.88,3.89-4.31,0-2.63-1.49-4.25-3.86-4.25Z" stroke-width="0"/><path d="m128.94,31.84V8.16h3.08v23.67h-3.08Z" stroke-width="0"/><path d="m138.18,25.48c.1,2.17,1.62,3.89,3.99,3.89,2.11,0,3.28-.68,4.51-1.62l1.88,1.95c-1.69,1.46-3.57,2.53-6.42,2.53-3.96,0-7.04-2.72-7.04-7.26,0-3.96,2.85-7,6.91-7s6.78,3.15,6.78,7.52h-10.6Zm3.7-4.77c-1.75,0-3.21.94-3.57,2.43h7.13c-.49-1.56-1.85-2.43-3.57-2.43Z" stroke-width="0"/></svg>
